<svg id="Layer_3" height="512" viewBox="0 0 64 64" width="512" xmlns="http://www.w3.org/2000/svg" data-name="Layer 3"><path d="m48 31h-1a4 4 0 0 0 -8 0h-.586l-4.828-4.828a3.975 3.975 0 0 0 -2.829-1.172h-7.514a3.975 3.975 0 0 0 -2.829 1.172l-4.828 4.828h-.586a4 4 0 0 0 -8 0h-1a5.006 5.006 0 0 0 -5 5v22a5.006 5.006 0 0 0 5 5h42a5.006 5.006 0 0 0 5-5v-22a5.006 5.006 0 0 0 -5-5zm-5-2a2 2 0 0 1 2 2h-4a2 2 0 0 1 2-2zm-32 0a2 2 0 0 1 2 2h-4a2 2 0 0 1 2-2zm40 29a3 3 0 0 1 -3 3h-42a3 3 0 0 1 -3-3v-22a3 3 0 0 1 3-3h10a1 1 0 0 0 .707-.293l5.121-5.121a1.99 1.99 0 0 1 1.415-.586h7.514a1.99 1.99 0 0 1 1.415.586l5.121 5.121a1 1 0 0 0 .707.293h10a3 3 0 0 1 3 3z"/><path d="m27 33a13 13 0 1 0 13 13 13.015 13.015 0 0 0 -13-13zm0 24a11 11 0 1 1 11-11 11.013 11.013 0 0 1 -11 11z"/><path d="m27 37a9 9 0 1 0 9 9 9.01 9.01 0 0 0 -9-9zm0 16a7 7 0 1 1 7-7 7.008 7.008 0 0 1 -7 7z"/><path d="m48 35h-6a1 1 0 0 0 -1 1v4a1 1 0 0 0 1 1h6a1 1 0 0 0 1-1v-4a1 1 0 0 0 -1-1zm-1 4h-4v-2h4z"/><path d="m12 53a3 3 0 1 0 3 3 3 3 0 0 0 -3-3zm0 4a1 1 0 1 1 1-1 1 1 0 0 1 -1 1z"/><path d="m50 1a13 13 0 1 0 13 13 13.015 13.015 0 0 0 -13-13zm0 24a11 11 0 1 1 11-11 11.013 11.013 0 0 1 -11 11z"/><path d="m57 11h-4v-4a1 1 0 0 0 -1-1h-4a1 1 0 0 0 -1 1v4h-4a1 1 0 0 0 -1 1v4a1 1 0 0 0 1 1h4v4a1 1 0 0 0 1 1h4a1 1 0 0 0 1-1v-4h4a1 1 0 0 0 1-1v-4a1 1 0 0 0 -1-1zm-1 4h-4a1 1 0 0 0 -1 1v4h-2v-4a1 1 0 0 0 -1-1h-4v-2h4a1 1 0 0 0 1-1v-4h2v4a1 1 0 0 0 1 1h4z"/></svg>